<svg xmlns="http://www.w3.org/2000/svg" preserveAspectRatio="xMidYMid meet" version="1.0" viewBox="0 0 1280 1280"><g id="layer101" fill="#02c39a" stroke="none"><path d="M424 1168 c-23 -24 -127 -143 -232 -265 -168 -194 -192 -226 -192 -255 0 -30 12 -46 99 -131 58 -58 106 -97 118 -97 30 0 60 27 173 160 83 98 106 119 116 108 6 -7 119 -141 249 -298 130 -157 246 -293 257 -303 11 -9 34 -17 51 -17 26 0 47 16 124 93 81 82 93 97 93 128 0 30 -38 79 -346 444 -435 516 -398 475 -437 475 -26 0 -42 -9 -73 -42z"/></g></svg>