<!DOCTYPE svg PUBLIC "-//W3C//DTD SVG 20010904//EN" "http://www.w3.org/TR/2001/REC-SVG-20010904/DTD/svg10.dtd">
<!--(c) 2009-2018 Sorozat figyelő | sorfi.org, resist.hu -->
<svg version="1.0" xmlns="http://www.w3.org/2000/svg" viewBox="0 0 1280 1280" preserveAspectRatio="xMidYMid meet">
  <g id="layer101" fill="#cccccc" stroke="none">
   <path d="M482 1265 c-219 -53 -415 -249 -467 -466 -19 -82 -19 -236 0 -318 40 -169 172 -334 327 -410 109 -54 182 -71 298 -71 179 0 332 62 453 184 127 127 187 272 187 456 0 121 -20 202 -72 303 -81 156 -237 277 -413 322 -72 18 -239 18 -313 0z m261 -130 c199 -42 363 -214 397 -417 55 -326 -243 -629 -570 -579 -277 42 -476 310 -430 579 34 201 197 374 393 417 81 18 128 18 210 0z"/>
   <path d="M464 828 l-188 -173 44 -2 c25 -2 74 -6 109 -9 l64 -6 -7 -138 -6 -138 72 -7 c40 -3 107 -5 148 -3 l75 3 6 135 c4 74 7 137 8 138 0 2 49 1 107 -3 90 -6 105 -5 98 6 -9 16 -334 369 -339 369 -2 0 -88 -78 -191 -172z"/>
  </g>
  <g id="layer102" fill="#cccccc" stroke="none">
    <path d="M482 1265 c-219 -53 -415 -249 -467 -466 -19 -82 -19 -236 0 -318 40 -169 172 -334 327 -410 109 -54 182 -71 298 -71 179 0 332 62 453 184 127 127 187 272 187 456 0 121 -20 202 -72 303 -81 156 -237 277 -413 322 -72 18 -239 18 -313 0z m261 -130 c199 -42 363 -214 397 -417 55 -326 -243 -629 -570 -579 -277 42 -476 310 -430 579 34 201 197 374 393 417 81 18 128 18 210 0z"/>
  </g>
</svg>
