<!DOCTYPE svg PUBLIC "-//W3C//DTD SVG 20010904//EN" "http://www.w3.org/TR/2001/REC-SVG-20010904/DTD/svg10.dtd">
<!--(c) 2009-2018 Sorozat figyelő | sorfi.org, resist.hu -->
<svg version="1.0" xmlns="http://www.w3.org/2000/svg" viewBox="0 0 1280 1280" preserveAspectRatio="xMidYMid meet">
  <g id="layer101" fill="#cccccc" stroke="none">
    <path d="M92 1187 c-133 -134 -139 -115 100 -354 l193 -193 -193 -193 c-239 -239 -234 -221 -99 -355 134 -133 115 -139 354 100 l193 193 193 -193 c239 -239 221 -234 355 -99 133 134 139 115 -100 354 l-193 193 193 193 c239 239 234 221 99 355 -134 133 -115 139 -354 -100 l-193 -193 -193 193 c-239 239 -221 234 -355 99z"/>
  </g>
</svg>
